<?xml version="1.0" ?><svg id="icon" style="enable-background:new 0 0 512 512;" version="1.1" viewBox="0 0 512 512" xml:space="preserve" xmlns="http://www.w3.org/2000/svg" xmlns:xlink="http://www.w3.org/1999/xlink"><g><path d="M119.1818008,326.2879944c0.1753006,0.0464172,0.3169022,0.1577148,0.5004959,0.1860046   c0.0713043,0.0103149,0.135704-0.0176086,0.2065048-0.0097046c6.4304962,1.5917969,13.0685959,2.503418,19.8577042,2.503418   c20.6362,0,40.0484009-7.5381165,55.2206879-21.331604c15.1697083,13.7934875,34.5818024,21.331604,55.2180023,21.331604   c22.213913,0,43.3108063-8.9453125,58.7598114-24.7359009c13.2020874,13.4892883,30.5336914,21.9277954,49.148407,24.1166992   c0.015686,0,0.0287781,0.0087891,0.0446777,0.0087891c0.0037231,0,0.0068054,0,0.010498,0   c3.1577148,0.3687134,6.3403015,0.6104126,9.5586243,0.6104126c24.2138977,0,47.1056824-10.6319275,62.8029785-29.1753235   c1.8911133-2.2353821,1.6141968-5.577179-0.6208801-7.4711914c-2.2273254-1.8778992-5.5800171-1.6138-7.4660034,0.6210938   c-13.6822205,16.1631165-33.625,25.4291992-54.716095,25.4291992c-1.5027161,0-2.9824219-0.1508789-4.471405-0.2442017   c-0.7820129-22.6898804-2.0447083-125.0365906,35.010498-189.3568878   c7.7785034-13.5038986,5.2096863-21.9009018,1.6835938-26.5630035   c-11.2529907-14.9057007-43.718811-9.4057007-62.0682068-4.8012009   C263.5436096,116.0541,139.2509003,191.240097,116.3809967,314.4031982   c-10.0682983-3.4692078-19.3356934-9.1185913-27.1158981-16.8407898c-2.0822983-2.0644226-5.4328995-2.0537109-7.4944,0.0312805   c-2.0590973,2.074707-2.046402,5.4272156,0.0283051,7.4916992   C92.3201981,315.5263062,105.1932983,322.6947021,119.1818008,326.2879944z M340.4406128,107.6868973   c29.2350769-7.3471985,46.6996765-4.8378983,51.0351868,0.905304c2.8924866,3.8281021,0.2849121,10.2080002-2.4136047,14.8900986   C351.0541077,189.4608002,351.648407,289.90271,352.5606995,316.734314   c-15.2969055-3.3115234-29.2279968-11.5698242-39.5725098-23.7920227c-2.0126953-2.3695984-6.0739746-2.3695984-8.0867004,0   c-13.6766968,16.1631165-33.6195984,25.4291992-54.7162933,25.4291992c-19.5131989,0-37.771698-7.7397766-51.4152985-21.7973938   c-0.9981995-1.0292969-2.3692932-1.6088867-3.8027039-1.6088867c-1.4332886,0-2.8043976,0.5795898-3.800293,1.6088867   c-13.6461945,14.0576172-31.907196,21.7973938-51.4203949,21.7973938c-4.4446106,0-8.819809-0.4408875-13.1018066-1.2299805   C148.1994019,198.3690033,268.5340881,125.7265015,340.4406128,107.6868973z"/><path d="M422.4233093,343.5379944c-13.6822205,16.1625977-33.625,25.4291992-54.716095,25.4291992   c-21.0940247,0-41.0393066-9.2666016-54.7190247-25.4291992c-2.0126953-2.3700867-6.0739746-2.3700867-8.0867004,0   c-13.6766968,16.1625977-33.6195984,25.4291992-54.7162933,25.4291992c-19.5131989,0-37.771698-7.7402039-51.4152985-21.7978821   c-0.9981995-1.0292969-2.3692932-1.6088257-3.8027039-1.6088257c-1.4332886,0-2.8043976,0.5795288-3.800293,1.6088257   c-13.6461945,14.0576782-31.907196,21.7978821-51.4203949,21.7978821c-19.0322037,0-36.9595032-7.3887024-50.4814072-20.8096008   c-2.0822983-2.059082-5.4328995-2.0487976-7.4944,0.031311c-2.0590973,2.074707-2.046402,5.4271851,0.0283051,7.4921875   c15.5219955,15.4023132,36.1007996,23.8822937,57.9475021,23.8822937c20.6362,0,40.0484009-7.5385742,55.2206879-21.3320923   c15.1697083,13.7935181,34.5818024,21.3320923,55.2180023,21.3320923c22.213913,0,43.3108063-8.9457703,58.7598114-24.7362976   c15.4541016,15.7905273,36.5507813,24.7362976,58.762207,24.7362976c24.2138977,0,47.1056824-10.6322937,62.8029785-29.1757813   c1.8911133-2.2348938,1.6141968-5.5776062-0.6208801-7.4711914   C427.6619873,341.0331116,424.3092957,341.3026123,422.4233093,343.5379944z"/><path d="M422.4233093,394.1326904c-13.6822205,16.1631165-33.625,25.429718-54.716095,25.429718   c-21.0940247,0-41.0393066-9.2666016-54.7190247-25.429718c-2.0126953-2.3695984-6.0739746-2.3695984-8.0867004,0   c-13.6766968,16.1631165-33.6195984,25.429718-54.7162933,25.429718c-19.5131989,0-37.771698-7.7402039-51.4152985-21.7973938   c-0.9981995-1.0297241-2.3692932-1.609314-3.8027039-1.609314c-1.4332886,0-2.8043976,0.5795898-3.800293,1.609314   c-13.6461945,14.0571899-31.907196,21.7973938-51.4203949,21.7973938c-19.0322037,0-36.9595032-7.3882141-50.4814072-20.8091125   c-2.0822983-2.0649109-5.4328995-2.0541992-7.4944,0.0307922c-2.0590973,2.074707-2.046402,5.4272156,0.0283051,7.4916992   c15.5219955,15.4028015,36.1007996,23.8828125,57.9475021,23.8828125c20.6362,0,40.0484009-7.5386047,55.2206879-21.3320007   c15.1697083,13.793396,34.5818024,21.3320007,55.2180023,21.3320007c22.213913,0,43.3108063-8.9458008,58.7598114-24.7367859   c15.4541016,15.7909851,36.5507813,24.7367859,58.762207,24.7367859c24.2138977,0,47.1056824-10.6322937,62.8029785-29.175293   c1.8911133-2.235321,1.6141968-5.5776062-0.6208801-7.4712219   C427.6619873,391.6336975,424.3092957,391.8978882,422.4233093,394.1326904z"/><path d="M168.7695007,283.2825928c0.5043945,0.1499023,1.0113983,0.2227173,1.5133972,0.2227173   c2.283905,0,4.3899078-1.4849243,5.0751953-3.7875977c1.4463043-4.8579102,3.1382141-9.7368164,5.0317078-14.4916992   c1.0812988-2.7217102-0.2456055-5.8003235-2.9645996-6.8814087c-2.7136078-1.0863953-5.7973022,0.2431946-6.8811035,2.9595032   c-2.0099945,5.0552063-3.8054047,10.2284851-5.3423004,15.3920898   C164.3688049,279.5003967,165.9649963,282.449585,168.7695007,283.2825928z"/><path d="M188.8515015,236.102005c0.8798981,0.5643921,1.862793,0.8280945,2.8354034,0.8280945   c1.753891,0,3.4692993-0.8692017,4.478302-2.4575043c26.5597992-41.8154907,72.9718781-78.4824982,124.1519012-98.0917969   c2.7319031-1.0449982,4.0979004-4.1078949,3.0499878-6.8399048c-1.0476074-2.7367935-4.1159058-4.1024933-6.8422852-3.0521927   c-53.2286987,20.3900986-101.5686035,58.6352005-129.3054047,102.3026962   C185.6515045,231.259201,186.3813019,234.5346069,188.8515015,236.102005z"/><path d="M342.9371948,128.9564056c0.4189148,0,0.8435059-0.0463104,1.2677917-0.1552124   c4.6021118-1.1279907,9.0075989-1.9970932,13.0974121-2.5766907c2.8974915-0.4140015,4.9101868-3.0937042,4.4989929-5.9912033   c-0.416687-2.8974991-3.138092-4.910202-5.9940796-4.501503c-4.4338074,0.6314011-9.1890259,1.5679016-14.1271973,2.7842026   c-2.8430176,0.6929016-4.5815125,3.5644989-3.8831177,6.405304   C338.3919983,127.3373032,340.5545959,128.9564056,342.9371948,128.9564056z"/><path d="M179.6470947,150.3450928c0.3492126,0.0674133,0.6988068,0.1035004,1.0455017,0.1035004   c1.8339081,0,3.5673065-0.9515991,4.5400085-2.5658875c0.1266937-0.2124023,13.0665894-21.4199066,33.9120941-31.0952072   c8.2987976-3.8544998,13.2837067-10.0424957,13.6797028-16.9756012c0.3414917-5.9447937-2.7319031-11.4960938-8.2187958-14.8539963   c-7.750412-4.733902-18.3979034-4.0461044-28.4794006,1.8676987   c-26.6661072,15.6201019-20.933609,57.3212967-20.6773071,59.0858994   C175.7718964,148.1307983,177.4510956,149.9002991,179.6470947,150.3450928z M201.4810944,95.9627991   c4.0098114-2.3490982,7.9910126-3.5493011,11.4756012-3.5493011c2.2998047,0,4.3848114,0.5273056,6.1209106,1.5884018   c2.0980988,1.2778015,3.2826996,3.2285004,3.1687012,5.2050018c-0.1653137,2.9072952-2.923111,5.8149948-7.5640106,7.9673004   c-12.6269989,5.8622971-22.550293,15.1753006-29.1625977,22.7548904   C186.1611023,118.3915024,189.4338074,103.0252991,201.4810944,95.9627991z"/><path d="M155.4620972,179.5359955c0.046402,0,0.0828094,0,0.1035004,0   c1.7953949-0.0361023,3.4329071-1.0135956,4.3798981-2.5350952c0.9490051-1.5263977,1.0422058-3.4662933,0.2817078-5.0908051   c-0.0437012-0.0932922-4.4365082-9.8305969,0.403595-30.9346008c2.5299988-11.0312958-1.9790039-16.0287933-4.8894043-18.0312958   c-4.9279938-3.3783951-12.0780945-2.8920975-18.2118988,1.2471008   c-6.6201019,4.4649048-12.6681976,13.8710938-9.7941971,26.8784027   C133.8845062,178.884201,153.6513062,179.5359955,155.4620972,179.5359955z M143.4559937,132.9765015   c1.7126007-1.1538086,3.4538116-1.6708984,4.7444-1.6708984c0.6523132,0,1.1875,0.134201,1.5444031,0.3773956   c0.8567047,0.5899048,1.5133972,2.7525024,0.5590973,6.9228973c-2.8146973,12.2671051-2.9049988,21.368103-2.1964874,27.6025085   c-3.7044067-2.5923004-7.8592072-7.6265106-10.0242004-17.4258118   C135.9073944,138.9472046,141.6452026,134.1972046,143.4559937,132.9765015z"/></g></svg>